# xmcd
#
# Track frame offsets:
#	150
#	16280
#	31292
#	48751
#	65977
#	81074
#	98965
#	115858
#	134741
#	148545
#	163369
#	175789
#	190666
#	204194
#	218535
#	233665
#
# Disc length: 3348 seconds
#
# Revision: 4
# Processed by: cddbd v1.5.1PL0 Copyright (c) Steve Scherf et al.
# Submitted via: audiograbber 1.83.01
#
DISCID=da0d1210
DTITLE=2001-01 Country Radio - 2001-01 Country Radio
DYEAR=2001
DGENRE=Country
TTITLE0=Faith Hill - If My Heart Had Wings
TTITLE1=Kenny Chesney - Don't Happen Twice
TTITLE2=Phil Vassar - Rose Bouquet
TTITLE3=Vince Gill - Shoot Straight From Your Heart
TTITLE4=Aaron Tippin - People Like Us
TTITLE5=Terri Clark - No Fear
TTITLE6=Neal McCoy - Beating It In
TTITLE7=Sons Of The Desert - What I Did Right
TTITLE8=John Michael Montgomery - That's What I Like About You
TTITLE9=Patty Loveless - The Last Thing On My Mind
TTITLE10=Kenny Rodgers - There You Go Again
TTITLE11=Billy Ray Cyrus - Burn Down The Trailer Park
TTITLE12=Meredith Edwards - A Rose Is A Rose
TTITLE13=Jolie and The Wanted - Boom
TTITLE14=John Colbert - Under The Influence
TTITLE15=Patti Page - New Way Out
EXTD=
EXTT0=
EXTT1=
EXTT2=
EXTT3=
EXTT4=
EXTT5=
EXTT6=
EXTT7=
EXTT8=
EXTT9=
EXTT10=
EXTT11=
EXTT12=
EXTT13=
EXTT14=
EXTT15=
PLAYORDER=
